<svg xmlns="http://www.w3.org/2000/svg" viewBox="0 0 770 770" fill="#fff"><path d="M476.91 0h-.86v120.6l-3.85-13.75v.12L442.65 1.54l-.08-.31C336.2 8.81 239.47 51.33 163.76 117.4l77.07 126.01-125.58-77.09c-63.69 74.13-105 168.06-113.56 271.32l97 39.43H0c.16 109.27 36.94 211.21 98.69 291.6l205.3-204.77c-13.2-26.09-20.63-55.59-20.63-86.83 0-106.41 86.27-192.7 192.7-192.7 31.23 0 60.7 7.43 86.77 20.61L768.09 99.8C687.65 37.8 586.26 0 476.91 0m86.46 653.92c0 10.38-1.34 20.47-3.89 30.06l41.39 18.28 136.1 60.12 7.89-7.74-66.94-249.65-65.66-34.3-6.03-22.44 84.27 44.04 11.57 43.49 32.59 17.01-27.2-101.36-90.12-150.57-10.85 10.85.02.02-197.95 198.14 27.04 27.14c3.44-.29 6.9-.47 10.4-.47 64.82 0 117.36 52.53 117.36 117.36M296.74 761.5l40.36-149.79 13.05-13.24c-30.35-31.46-49.02-74.25-49.02-121.4 0-96.61 78.32-174.91 174.91-174.91 32.9 0 63.66 9.08 89.94 24.87L386.56 506.45l-3.19 3.19 2.68 2.66 28.48 28.5 14.89 14.91c5.39-.89 10.93-1.38 16.57-1.38 49.62 0 90.76 36.3 98.3 83.8.72 4.51 1.15 9.1 1.22 13.78L296.72 761.49Z" transform="translate(2.05 2.05)"/></svg>
